<?xml version="1.0" encoding="UTF-8"?>
<svg xmlns="http://www.w3.org/2000/svg" xmlns:xlink="http://www.w3.org/1999/xlink" width="2886.76pt" height="756.06pt" viewBox="0 0 2886.76 756.06" version="1.1">
<defs>
<clipPath id="clip1">
  <path d="M 0 0 L 2886.761719 0 L 2886.761719 756.058594 L 0 756.058594 Z M 0 0 "/>
</clipPath>
</defs>
<g id="surface1">
<g clip-path="url(#clip1)" clip-rule="nonzero">
<path style=" stroke:none;fill-rule:nonzero;fill:rgb(80.39856%,21.598816%,17.298889%);fill-opacity:1;" d="M 0 0.00390625 L 2886.761719 0.00390625 L 2886.761719 756.058594 L 0 756.058594 L 0 0.00390625 "/>
</g>
<path style=" stroke:none;fill-rule:nonzero;fill:rgb(100%,100%,100%);fill-opacity:1;" d="M 2135.859375 115.128906 L 2208.03125 115.128906 L 2208.03125 640.933594 L 2135.859375 640.933594 Z M 2343.78125 115.128906 L 2422.820313 115.128906 L 2548.261719 304.144531 L 2675.410156 115.128906 L 2751.019531 115.128906 L 2586.058594 360.847656 L 2771.640625 640.933594 L 2692.589844 640.933594 L 2546.539063 420.988281 L 2400.480469 640.933594 L 2323.160156 640.933594 L 2508.738281 362.566406 Z M 1644.421875 115.128906 L 1828.28125 115.128906 C 1883.269531 115.128906 1924.511719 127.15625 1955.441406 149.496094 C 1984.648438 171.835938 2000.121094 204.480469 2000.121094 245.722656 C 2000.121094 278.367188 1993.238281 304.144531 1977.78125 323.046875 C 1962.308594 341.945313 1939.96875 353.976563 1910.761719 359.128906 C 1946.851563 366.003906 1974.339844 381.46875 1993.238281 405.523438 C 2012.140625 429.582031 2022.449219 458.792969 2022.449219 494.878906 C 2022.449219 541.273438 2006.988281 577.355469 1974.339844 603.128906 C 1941.691406 628.90625 1897.019531 640.933594 1836.878906 640.933594 L 1644.421875 640.933594 Z M 1716.589844 173.554688 L 1716.589844 331.636719 L 1823.128906 331.636719 C 1857.5 331.636719 1884.988281 324.765625 1902.171875 312.734375 C 1919.351563 298.988281 1927.949219 280.089844 1927.949219 252.59375 C 1927.949219 226.820313 1919.351563 206.199219 1902.171875 192.453125 C 1884.988281 178.707031 1859.210938 173.554688 1823.128906 173.554688 Z M 1716.589844 390.058594 L 1716.589844 582.511719 L 1831.71875 582.511719 C 1869.519531 582.511719 1898.730469 573.917969 1917.640625 558.453125 C 1936.539063 542.988281 1945.128906 518.933594 1945.128906 486.285156 C 1945.128906 453.636719 1936.539063 429.582031 1917.640625 414.117188 C 1898.730469 398.652344 1869.519531 390.058594 1831.71875 390.058594 Z M 1151.269531 115.128906 L 1335.128906 115.128906 C 1390.109375 115.128906 1431.351563 127.15625 1462.28125 149.496094 C 1491.488281 171.835938 1506.960938 204.480469 1506.960938 245.722656 C 1506.960938 278.367188 1500.089844 304.144531 1484.621094 323.046875 C 1469.160156 341.945313 1446.820313 353.976563 1417.609375 359.128906 C 1453.691406 366.003906 1481.179688 381.46875 1500.089844 405.523438 C 1518.988281 429.582031 1529.300781 458.792969 1529.300781 494.878906 C 1529.300781 541.269531 1513.828125 577.355469 1481.179688 603.128906 C 1448.539063 628.902344 1403.859375 640.933594 1343.71875 640.933594 L 1151.269531 640.933594 Z M 1223.441406 173.554688 L 1223.441406 331.636719 L 1329.96875 331.636719 C 1364.339844 331.636719 1391.828125 324.765625 1409.019531 312.734375 C 1426.199219 298.988281 1434.789063 280.089844 1434.789063 252.59375 C 1434.789063 226.820313 1426.199219 206.199219 1409.019531 192.453125 C 1391.828125 178.707031 1366.058594 173.554688 1329.96875 173.554688 Z M 1223.441406 390.058594 L 1223.441406 582.511719 L 1338.558594 582.511719 C 1378.089844 582.511719 1405.578125 573.917969 1424.480469 558.453125 C 1443.378906 542.988281 1451.96875 518.933594 1451.96875 486.285156 C 1451.96875 453.636719 1443.378906 429.582031 1424.480469 414.117188 C 1405.578125 398.652344 1376.371094 390.058594 1338.558594 390.058594 Z M 790.425781 115.128906 L 871.183594 115.128906 L 1073.949219 640.933594 L 1000.058594 640.933594 L 951.945313 506.902344 L 711.382813 506.902344 L 663.269531 640.933594 L 587.664063 640.933594 Z M 831.664063 185.578125 L 733.71875 446.765625 L 929.605469 446.765625 Z M 123.71875 115.128906 L 541.269531 115.128906 L 541.269531 170.113281 L 204.480469 580.792969 L 549.859375 580.792969 L 549.859375 640.933594 L 115.128906 640.933594 L 115.128906 585.945313 L 451.914063 175.269531 L 123.71875 175.269531 L 123.71875 115.128906 "/>
</g>
</svg>
